# xmcd
# 
# Track frame offsets:
#     180
#     13370
#     24466
#     35840
#     48020
#     57926
#     71468
#     88028
#     106593
#     116418
#     126930
#     150817
#     161869
#     174616
#     187459
#     201328
# 
# Disc length: 2884
# 
# Revision: 1
# Processed by: cddbd v1.5.2PL0 Copyright (c) Steve Scherf et al.
# Submitted via: BonkEnc v1.0.6
# 
DISCID=da0b4210
DTITLE=Jennifer Lara - STUDIO ONE PRESENTS
DYEAR=0
DGENRE=Ska/Reggae
TTITLE0=A Woman
TTITLE1=A Change Gona Come
TTITLE2=Hurts So Good
TTITLE3=Close To You
TTITLE4=Consider Me
TTITLE5=Loving You
TTITLE6=Our Love
TTITLE7=Love and Harmony
TTITLE8=Ain't No Love
TTITLE9=Rocking Tonight
TTITLE10=I Am In Love
TTITLE11=I Need You Always
TTITLE12=Hold Me Baby
TTITLE13=It's Impossible
TTITLE14=Where Have All The Good Men Gone
TTITLE15=Suki Yaki
EXTD=
EXTT0=
EXTT1=
EXTT2=
EXTT3=
EXTT4=
EXTT5=
EXTT6=
EXTT7=
EXTT8=
EXTT9=
EXTT10=
EXTT11=
EXTT12=
EXTT13=
EXTT14=
EXTT15=
PLAYORDER=
